<?xml version="1.0" encoding="utf-8"?>
<!-- Generator: Adobe Illustrator 18.0.0, SVG Export Plug-In . SVG Version: 6.00 Build 0)  -->
<!DOCTYPE svg PUBLIC "-//W3C//DTD SVG 1.1//EN" "http://www.w3.org/Graphics/SVG/1.1/DTD/svg11.dtd">
<svg version="1.1" id="Layer_1" xmlns="http://www.w3.org/2000/svg" xmlns:xlink="http://www.w3.org/1999/xlink" x="0px" y="0px"
	 viewBox="0 161.4 595.4 683.8" enable-background="new 0 161.4 595.4 683.8" xml:space="preserve">
<g>
	<polygon id="background" fill="#FFFFFF" points="18.4,342.1 297.8,180.7 577.1,342.1 577.1,664.7 297.8,826 18.4,664.7 	"/>
	<path id="path4156" fill="#F01616" d="M447.3,406.3c0-2-1.7-3.7-3.7-3.7H151.8c-2,0-3.7,1.7-3.7,3.7s1.7,3.7,3.7,3.7h291.8
		C445.6,410,447.3,408.3,447.3,406.3z"/>
	<path id="top-stripes" fill="#F01616" d="M417.2,283.5l-117.4-67.7l0,0c-0.2-0.2-0.3-0.2-0.5-0.2l0,0l0,0h-0.2h-0.2
		c-0.2,0-0.3,0-0.5,0c0,0,0,0-0.2,0H298c-0.2,0-0.5,0-0.6,0l0,0l0,0l0,0c-0.2,0-0.3,0.2-0.5,0.2l0,0l-115.6,66.7
		c-1.4,0.8-1.9,2.5-1.1,3.9c0.8,1.4,2.6,1.9,3.9,1.1l103-59.3l-43.6,55.7c-0.9,1.2-0.8,3.1,0.5,4c1.2,0.9,3.1,0.8,4-0.5l47.6-60.8
		V286c0,1.5,1.2,2.9,2.9,2.9c1.7,0,2.9-1.2,2.9-2.9v-59.4l47.6,60.8c0.6,0.8,1.4,1.1,2.3,1.1c0.6,0,1.2-0.2,1.7-0.6
		c1.2-0.9,1.4-2.8,0.5-4L310,228.2l104.6,60.3c0.5,0.3,0.9,0.3,1.4,0.3c0.9,0,2-0.5,2.5-1.4C419.1,286.2,418.6,284.3,417.2,283.5
		L417.2,283.5z"/>
	<path id="bottom-stripes" fill="#F01616" d="M416.5,721.2c-0.8-1.4-2.6-1.9-3.9-1.1L310,779.3l43.6-55.7c0.9-1.2,0.8-3.1-0.5-4
		c-1.2-0.9-3.1-0.8-4,0.5l-47.6,60.8v-59.4c0-1.5-1.2-2.9-2.9-2.9c-1.7,0-2.9,1.2-2.9,2.9v59.4l-47.6-60.8c-0.9-1.2-2.8-1.4-4-0.5
		c-1.2,0.9-1.4,2.8-0.5,4l43.6,55.7L182.6,719c-1.4-0.8-3.1-0.3-3.9,1.1c-0.8,1.4-0.3,3.1,1.1,3.9l117.4,67.8c0,0,0,0,0.2,0
		c0.2,0,0.2,0.2,0.3,0.2c0,0,0,0,0.2,0c0,0,0,0,0.2,0h0.2c0.2,0,0.5,0.2,0.6,0.2l0,0l0,0l0,0l0,0c0.3,0,0.5,0,0.6-0.2h0.2h0.2
		c0.2,0,0.2-0.2,0.3-0.2c0,0,0,0,0.2,0L416,725.1C416.8,724.4,417.2,722.6,416.5,721.2z"/>
	<g id="nodeschool-banner">
		<path fill="#006FBF" d="M147,366.5c1.7,0,3.1-1.3,3.1-3.1v-15.6l12.7,16.7c0.8,1.1,1.7,2,3.3,2h0.3c1.7,0,3.3-1.3,3.3-3.3v-22.9
			c0-1.7-1.3-3.1-3.1-3.1c-1.7,0-3.1,1.3-3.1,3.1v14.9L151.1,339c-0.8-1.1-1.7-2-3.3-2h-0.7c-1.7,0-3.3,1.3-3.3,3.3v22.9
			C144,365.2,145.3,366.5,147,366.5L147,366.5z"/>
		<path fill="#006FBF" d="M190.5,366.8c8.9,0,15.6-6.8,15.6-14.9l0,0c0-8.3-6.4-14.9-15.3-14.9c-8.9,0-15.6,6.8-15.6,14.9l0,0
			C175.2,360.1,181.6,366.8,190.5,366.8z M182,351.8c0-5.1,3.5-8.9,8.8-8.9c5.1,0,8.8,4.1,8.8,9.2l0,0c0,5.1-3.5,8.9-8.8,8.9
			C185.6,360.8,182,356.9,182,351.8L182,351.8z"/>
		<path fill="#006FBF" d="M214.8,366.3h8.1c9.2,0,15.3-6.4,15.3-14.4l0,0c0-8.1-6.4-14.4-15.3-14.4h-8.1c-1.7,0-3.3,1.3-3.3,3.3V363
			C211.7,364.9,213.2,366.3,214.8,366.3z M218.1,343.1h4.8c5.2,0,8.8,3.5,8.8,8.8l0,0c0,5.1-3.5,8.8-8.8,8.8h-4.8V343.1L218.1,343.1
			z"/>
		<path fill="#006FBF" d="M247.2,366.3h16.1c1.6,0,2.8-1.3,2.8-2.8s-1.3-2.8-2.8-2.8h-13.2v-6.2H261c1.6,0,2.8-1.3,2.8-2.8
			c0-1.6-1.3-2.8-2.8-2.8h-10.9V343H263c1.6,0,2.8-1.3,2.8-2.8c0-1.6-1.3-2.8-2.8-2.8h-15.8c-1.7,0-3.3,1.3-3.3,3.3v22.5
			C244.1,364.9,245.5,366.3,247.2,366.3L247.2,366.3z"/>
		<path fill="#006FBF" d="M271.3,363.2c3.3,2.4,7.1,3.5,10.9,3.5c6.4,0,10.7-3.3,10.7-8.9l0,0c0-5.1-3.3-7.2-9.2-8.8
			c-5.1-1.3-6.4-2-6.4-3.7l0,0c0-1.3,1.3-2.7,3.7-2.7c2,0,4,0.7,6.1,2c0.4,0.3,1.1,0.4,1.6,0.4c1.7,0,3.1-1.3,3.1-2.8
			c0-1.3-0.7-2.1-1.3-2.7c-2.7-1.7-5.7-2.7-9.2-2.7c-5.9,0-10,3.5-10,8.8l0,0c0,5.7,3.7,7.5,9.6,8.8c4.8,1.3,5.9,2,5.9,3.7l0,0
			c0,1.7-1.6,2.7-4.1,2.7c-2.8,0-5.2-1.1-7.5-2.7c-0.4-0.3-1.1-0.7-1.7-0.7c-1.7,0-3.1,1.3-3.1,2.8C270,362,270.7,362.8,271.3,363.2
			L271.3,363.2z"/>
		<path fill="#006FBF" d="M311.7,366.8c4.5,0,7.6-1.3,10.3-3.7c0.7-0.4,1.1-1.3,1.1-2.1c0-1.6-1.3-2.8-3.1-2.8c-0.7,0-1.3,0.3-2,0.7
			c-1.7,1.6-3.5,2.1-6.4,2.1c-5.1,0-8.3-4.1-8.3-9.2l0,0c0-5.1,3.5-8.9,8.3-8.9c2.1,0,4.1,0.7,5.9,2c0.4,0.3,1.1,0.7,2,0.7
			c1.7,0,3.1-1.3,3.1-3.1c0-1.1-0.7-2-1.3-2.7c-2.4-1.7-5.2-2.8-9.6-2.8c-8.9,0-15.1,6.8-15.1,14.9l0,0
			C297.2,360.1,303.5,366.8,311.7,366.8L311.7,366.8z"/>
		<path fill="#006FBF" d="M332.1,366.5c1.7,0,3.3-1.3,3.3-3.3v-8.8h11.9v8.8c0,1.7,1.3,3.3,3.3,3.3c1.7,0,3.3-1.3,3.3-3.3v-22.9
			c0-1.7-1.3-3.3-3.3-3.3c-1.7,0-3.3,1.3-3.3,3.3v8.5h-11.9v-8.5c0-1.7-1.3-3.3-3.3-3.3c-1.7,0-3.3,1.3-3.3,3.3v22.9
			C328.8,365.2,330.1,366.5,332.1,366.5z"/>
		<path fill="#006FBF" d="M374.4,366.8c8.9,0,15.3-6.8,15.3-14.9l0,0c0-8.3-6.4-14.9-15.3-14.9s-15.6,6.8-15.6,14.9l0,0
			C359,360.1,365.3,366.8,374.4,366.8z M365.6,351.8c0-5.1,3.5-8.9,8.8-8.9c5.1,0,8.8,4.1,8.8,9.2l0,0c0,5.1-3.5,8.9-8.8,8.9
			C369.3,360.8,365.6,356.9,365.6,351.8L365.6,351.8z"/>
		<path fill="#006FBF" d="M409.6,366.8c8.9,0,15.6-6.8,15.6-14.9l0,0c0-8.3-6.4-14.9-15.3-14.9s-15.6,6.8-15.6,14.9l0,0
			C394.3,360.1,400.6,366.8,409.6,366.8z M400.8,351.8c0-5.1,3.5-8.9,8.8-8.9c5.1,0,8.8,4.1,8.8,9.2l0,0c0,5.1-3.5,8.9-8.8,8.9
			C404.5,360.8,400.8,356.9,400.8,351.8L400.8,351.8z"/>
		<path fill="#006FBF" d="M433.9,366.3h14.9c1.6,0,2.8-1.3,2.8-2.8s-1.3-2.8-2.8-2.8h-11.9v-20.1c0-1.7-1.3-3.3-3.3-3.3
			c-1.7,0-3.3,1.3-3.3,3.3v22.3C430.5,364.9,432.1,366.3,433.9,366.3L433.9,366.3z"/>
	</g>
	<g>
		<path fill="#006FBF" d="M348.4,698.8l9.7-21.9c0.7-1.5,2-2.5,3.5-2.5h0.2c1.7,0,3,1,3.5,2.5l9.7,21.9c0.2,0.5,0.2,0.7,0.2,1.2
			c0,1.7-1.2,3-3,3c-1.5,0-2.5-0.7-3-2l-2-4.5H355l-2,4.5c-0.5,1.2-1.5,2-2.7,2c-1.5,0-2.7-1.2-2.7-3
			C347.9,699.5,348.2,699,348.4,698.8z M365.6,690.8l-4-9.2l-4,9.2H365.6z"/>
		<path fill="#006FBF" d="M224.2,699.3v-21.6c0-1.7,1.2-3,3-3h15.4c1.5,0,2.7,1.2,2.7,2.7s-1.2,2.7-2.7,2.7h-12.4v5.7h10.7
			c1.5,0,2.7,1.2,2.7,2.7c0,1.5-1.2,2.7-2.7,2.7h-10.7v6h12.7c1.5,0,2.7,1.2,2.7,2.7c0,1.5-1.2,2.7-2.7,2.7h-15.7
			C225.7,702.2,224.2,701,224.2,699.3z"/>
		<path fill="#006FBF" d="M283.3,688.9L283.3,688.9c0-8,6.2-14.4,14.7-14.4c4.2,0,7,1,9.4,2.7c0.5,0.5,1.2,1.2,1.2,2.5
			c0,1.7-1.2,3-3,3c-1,0-1.5-0.2-2-0.7c-1.7-1.2-3.5-2-6-2c-4.5,0-8,4-8,8.7l0,0c0,5,3.5,9,8.5,9c2.2,0,4.2-0.5,5.7-1.7v-4h-4.2
			c-1.5,0-2.7-1.2-2.7-2.7s1.2-2.7,2.7-2.7h7c1.7,0,3,1.2,3,3v6.7c0,1.7-0.7,3-2.2,4c-2.2,1.5-5.5,2.7-9.7,2.7
			C289.3,703.1,283.3,697.1,283.3,688.9z"/>
		<path fill="#006FBF" d="M414.5,699.5c-0.7-0.5-1.2-1.2-1.2-2.2c0-1.5,1.2-2.7,3-2.7c0.7,0,1.2,0.2,1.7,0.5c2,1.5,4.5,2.5,7.2,2.5
			c2.5,0,4-1,4-2.7l0,0c0-1.5-1-2.2-5.7-3.5c-5.7-1.5-9.2-3-9.2-8.5l0,0c0-5,4-8.5,9.7-8.5c3.5,0,6.2,1,9,2.5
			c0.7,0.5,1.2,1.2,1.2,2.5c0,1.5-1.2,2.7-3,2.7c-0.5,0-1-0.2-1.5-0.5c-2-1.2-4-2-6-2c-2.2,0-3.5,1-3.5,2.5l0,0c0,1.7,1.2,2.5,6,3.7
			c5.7,1.5,9,3.5,9,8.5l0,0c0,5.5-4.2,8.7-10.2,8.7C421.5,702.7,417.7,701.5,414.5,699.5z"/>
		<path fill="#006FBF" d="M169.5,700.4l-9-21.6c-0.2-0.5-0.2-1-0.2-1.5c0-1.7,1.2-3,3-3c1.5,0,2.7,1,3,2.2l7,18.2l7-18.2
			c0.5-1,1.5-2,3-2c1.7,0,3,1.2,3,3c0,0.5-0.2,1-0.2,1.2l-9.2,21.9c-0.7,1.5-1.7,2.5-3.5,2.5h-0.5
			C171.5,702.9,170.3,701.9,169.5,700.4z"/>
	</g>
	<g>
		<path id="doorknob" fill="#F01616" d="M298.8,510.3c4.1,0,7.5-3.4,7.5-7.5c0-4.1-3.4-7.5-7.5-7.5c-4.1,0-7.5,3.4-7.5,7.5
			C291.3,506.9,294.7,510.3,298.8,510.3z M298.8,502c0.5,0,0.7,0.3,0.7,0.7c0,0.5-0.3,0.7-0.7,0.7c-0.5,0-0.7-0.3-0.7-0.7
			C298.1,502.3,298.4,502,298.8,502z"/>
		<path fill="#F01616" d="M374.4,507.3c0.2-0.3,0.3-0.5,0.3-0.7v-0.2c0-0.3,0.2-0.5,0.2-0.8s0-0.5-0.2-0.8v-0.2
			c0-0.2-0.2-0.5-0.3-0.5v-0.2l-36.4-63c-0.5-1-1.7-1.7-2.8-1.7h-8.8h-55.8h-8.2c-1.1,0-2.3,0.7-2.8,1.7L223.1,504v0.2
			c-0.2,0.2-0.2,0.5-0.3,0.5v0.2c0,0.3-0.2,0.5-0.2,0.8s0,0.5,0.2,0.8v0.2c0,0.2,0.2,0.5,0.3,0.5v0.2l33.9,58.8h83.3L374.4,507.3z
			 M264.2,446h2.9v27.6h-18.7L264.2,446z M267.3,565.2h-2.9l-17.3-29.8h20.2V565.2z M267.3,528.8h-24L231.8,509h35.5V528.8z
			 M267.3,502.2h-35.4l12.6-21.9h22.8V502.2z M323,505.8v59.5h-49.1v-33.1v-26.4v-28.7v-31H323V505.8z M354.3,528.8h-24.5V509h35.9
			L354.3,528.8z M329.7,446h3.4l15.8,27.6h-19.2L329.7,446L329.7,446z M329.7,480.4h23.2l12.7,21.9h-35.9L329.7,480.4L329.7,480.4z
			 M329.7,565.2v-29.8h20.7l-17.3,29.8H329.7z"/>
	</g>
	<path fill="#F01616" d="M100,662.4h391.4c2,0,3.7-1.7,3.7-3.7V652h28.8h50.5V344L297.2,183.9L21.1,343.3v0.6l276.5-159.4
		l276.6,159.6V391h-33.9c-2,0-3.7,1.7-3.7,3.7v11h-41.9v-85.4c0-2-1.7-3.7-3.7-3.7H99.6c-2,0-3.7,1.7-3.7,3.7v85.4H54v-11
		c0-2-1.7-3.7-3.7-3.7H21.1v71.2h3.5l4.6,8.2h-8.1v193.5L298,823.8l276.4-159.6v-0.6L297.6,823.2L21.2,663.6V652h46.3h28.8v6.7
		C96.3,660.7,98,662.4,100,662.4z M574.3,484.4h-4.7l-4-7h8.7V484.4z M574.2,491.8v0.8l-0.5-0.8H574.2z M565.6,470.2l4.6-8.2h4v8.2
		H565.6z M544.1,409.2v-11h30.2v22h-30.2V409.2z M540.5,427.7h33.9v13h-0.2L556,472.1v0.2c-0.2,0.2-0.2,0.5-0.3,0.6v0.2
		c0,0.3-0.2,0.6-0.2,0.9c0,0.3,0,0.6,0.2,0.9v0.2c0,0.2,0.2,0.5,0.3,0.6v0.2l18.3,31.6v43h-32.2c-2,0-3.7,1.7-3.7,3.7v25.5v25.5
		c0,2,1.7,3.7,3.7,3.7h32.2v35.7h-46.9V427.7H540.5z M545.6,575.9v-18.3h24.9v18.3H545.6z M570.5,583.3v18.3h-24.9v-18.3H570.5z
		 M494.8,636.1h0.1V636V413h41.9v7.3h-13.1c-2,0-3.7,1.7-3.7,3.7v220.6h-25.2V636.1z M103.5,409.2v-85.3h384v85.3v223.1h-5v-18.9
		c0-2-1.7-3.7-3.7-3.7h-8.5v-18.8c0-2-1.7-3.7-3.7-3.7h-8.5v-18.9c0-1.4-0.8-2.6-2-3.3H140.7c-1.1,0.7-1.8,1.8-1.8,3.2v18.9h-8.5
		c-2,0-3.7,1.7-3.7,3.7v18.9h-14.2c-2,0-3.7,1.7-3.7,3.7v18.9h-5.3V409.2z M454.7,594.6h8.5v15.3H134v-15.3h8.5H454.7z M146.2,587.3
		V572h7.3h290.2h7.3v15.3H146.2z M466.7,617.2h8.5v15.3h-359v-15.3h14.2H466.7z M103.5,648.3v-8.5h9H479h8.5v8.5v6.7h-384V648.3z
		 M21.2,398.2H47v11v11H21.2V398.2z M21.2,477.4h8.2v0.2l-4,6.8h-4.2V477.4z M63.8,644.4H21.2v-35.6h28c2,0,3.7-1.7,3.7-3.7v-25.5
		v-25.5c0-2-1.7-3.7-3.7-3.7h-28v-43.8L39,475.8v-0.2c0.2-0.2,0.2-0.5,0.3-0.6v-0.2c0-0.3,0.2-0.6,0.2-0.9s0-0.6-0.2-0.9v-0.2
		c0-0.2-0.2-0.5-0.3-0.6V472l-17.8-30.8v-13.8h29.5h13.1C63.8,427.4,63.8,644.4,63.8,644.4z M45.5,583.3v18.3H24.3v-18.3H45.5z
		 M24.3,575.9v-18.3h21.2v18.3H24.3z M96.2,636v8.5H71V423.9c0-2-1.5-3.7-3.6-3.7H54.3v-7.3h41.9V636z"/>
	<g>
		<path fill="#F01616" d="M140.7,582.2v-0.6c-0.4,0.1-0.8,0.3-1.1,0.6H140.7z"/>
		<path fill="#F01616" d="M465.8,381.9H129.6c-2,0-3.7,1.7-3.7,3.7v40.2c0,2,1.7,3.7,3.7,3.7h8.5v11c0,2,1.7,3.7,3.7,3.7h7.3v120.9
			h7.3V440.8c0-2-1.7-3.7-3.7-3.7h-7.3v-7.3h50v7.3h-7.3c-2,0-3.7,1.7-3.7,3.7v124.3h7.1V444.6h7.3c2,0,3.7-1.7,3.7-3.7v-11h191.4
			v11c0,2,1.7,3.7,3.7,3.7h7.3v120.5h7.5V440.8c0-2-1.7-3.7-3.7-3.7h-7.3v-7.3h48.7v7.3h-7.3c-1.9,0-3.6,1.7-3.6,3.7v124.3h7.1
			V444.2h7.3c2,0,3.7-1.7,3.7-3.7v-11h8.5c2,0,3.7-1.7,3.7-3.7v-40.2C469.5,383.6,467.8,381.9,465.8,381.9z M462.4,422.6h-8.5h-56
			H199.1h-57.2h-8.7v-33h329.2L462.4,422.6L462.4,422.6z"/>
	</g>
</g>
<path fill="#FDB128" d="M297.7,837.1L587,670.3v-7.8h0v-292h-0.2v-34.1L297.7,169.6L8.3,336.5v34.1v14.8v277.1h0.5v7.8L297.7,837.1z
	 M20.8,390.5v-14.2v-32.6L297.7,184l276.6,159.6v32.6h0.2v279.4h0v7.5L297.7,822.7L21.3,663.1v-7.5h-0.5V390.5z"/>
<g id="Lights">
	<g>
		<circle fill="#FFFF61" stroke="#000000" stroke-miterlimit="10" cx="580.6" cy="340.1" r="13.8"/>
		<circle fill="#FFFF61" stroke="#000000" stroke-miterlimit="10" cx="580.6" cy="666.6" r="13.8"/>
		<circle fill="#FFFF61" stroke="#000000" stroke-miterlimit="10" cx="297.7" cy="830.1" r="13.8"/>
		<circle fill="#FFFF61" stroke="#000000" stroke-miterlimit="10" cx="297.5" cy="176.6" r="13.8"/>
		<circle fill="#FFFF61" stroke="#000000" stroke-miterlimit="10" cx="14.8" cy="666.1" r="13.8"/>
		<circle fill="#FFFF61" stroke="#000000" stroke-miterlimit="10" cx="14.8" cy="340.1" r="13.8"/>
		<circle fill="#FFFF61" stroke="#000000" stroke-miterlimit="10" cx="369.2" cy="217.5" r="13.8"/>
		<circle fill="#FFFF61" stroke="#000000" stroke-miterlimit="10" cx="440" cy="258.4" r="13.8"/>
		<circle fill="#FFFF61" stroke="#000000" stroke-miterlimit="10" cx="510.8" cy="299.2" r="13.8"/>
		<circle fill="#FFFF61" stroke="#000000" stroke-miterlimit="10" cx="84.6" cy="707" r="13.8"/>
		<circle fill="#FFFF61" stroke="#000000" stroke-miterlimit="10" cx="155.4" cy="747.8" r="13.8"/>
		<circle fill="#FFFF61" stroke="#000000" stroke-miterlimit="10" cx="226.2" cy="788.7" r="13.8"/>
		<circle fill="#FFFF61" stroke="#000000" stroke-miterlimit="10" cx="580.6" cy="585.6" r="13.8"/>
		<circle fill="#FFFF61" stroke="#000000" stroke-miterlimit="10" cx="580.6" cy="503.9" r="13.8"/>
		<circle fill="#FFFF61" stroke="#000000" stroke-miterlimit="10" cx="580.6" cy="422.1" r="13.8"/>
		<circle fill="#FFFF61" stroke="#000000" stroke-miterlimit="10" cx="14.8" cy="585.6" r="13.8"/>
		<circle fill="#FFFF61" stroke="#000000" stroke-miterlimit="10" cx="14.8" cy="503.9" r="13.8"/>
		<circle fill="#FFFF61" stroke="#000000" stroke-miterlimit="10" cx="14.9" cy="422.1" r="13.8"/>
		<circle fill="#FFFF61" stroke="#000000" stroke-miterlimit="10" cx="84.9" cy="299.2" r="13.8"/>
		<circle fill="#FFFF61" stroke="#000000" stroke-miterlimit="10" cx="155.7" cy="258.4" r="13.8"/>
		<circle fill="#FFFF61" stroke="#000000" stroke-miterlimit="10" cx="226.5" cy="217.5" r="13.8"/>
		<circle fill="#FFFF61" stroke="#000000" stroke-miterlimit="10" cx="368.5" cy="788.7" r="13.8"/>
		<circle fill="#FFFF61" stroke="#000000" stroke-miterlimit="10" cx="439.3" cy="747.8" r="13.8"/>
		<circle fill="#FFFF61" stroke="#000000" stroke-miterlimit="10" cx="510.1" cy="707" r="13.8"/>
	</g>
</g>
</svg>
