<?xml version="1.0" encoding="utf-8"?>
<!-- Generator: Adobe Illustrator 18.0.0, SVG Export Plug-In . SVG Version: 6.00 Build 0)  -->
<!DOCTYPE svg PUBLIC "-//W3C//DTD SVG 1.1//EN" "http://www.w3.org/Graphics/SVG/1.1/DTD/svg11.dtd">
<svg version="1.1" xmlns="http://www.w3.org/2000/svg" xmlns:xlink="http://www.w3.org/1999/xlink" x="0px" y="0px"
	 viewBox="0.1 82.4 595.3 683.9" enable-background="new 0.1 82.4 595.3 683.9" xml:space="preserve">
<g id="Layer_1">
	<g>
		<polygon id="background" fill="#FFFFFF" points="18.4,263.1 297.8,101.7 577.1,263.1 577.1,585.7 297.8,747 18.4,585.7 		"/>
		<path id="path4156" fill="#F01616" d="M447.3,327.3c0-2-1.7-3.7-3.7-3.7H151.8c-2,0-3.7,1.7-3.7,3.7s1.7,3.7,3.7,3.7h291.8
			C445.6,331,447.3,329.3,447.3,327.3z"/>
		<path id="top-stripes" fill="#F01616" d="M417.2,204.5l-117.4-67.7l0,0c-0.2-0.2-0.3-0.2-0.5-0.2l0,0l0,0h-0.2h-0.2
			c-0.2,0-0.3,0-0.5,0c0,0,0,0-0.2,0H298c-0.2,0-0.5,0-0.6,0l0,0l0,0l0,0c-0.2,0-0.3,0.2-0.5,0.2l0,0l-115.6,66.7
			c-1.4,0.8-1.9,2.5-1.1,3.9c0.8,1.4,2.6,1.9,3.9,1.1l103-59.3l-43.6,55.7c-0.9,1.2-0.8,3.1,0.5,4c1.2,0.9,3.1,0.8,4-0.5l47.6-60.8
			V207c0,1.5,1.2,2.9,2.9,2.9c1.7,0,2.9-1.2,2.9-2.9v-59.4l47.6,60.8c0.6,0.8,1.4,1.1,2.3,1.1c0.6,0,1.2-0.2,1.7-0.6
			c1.2-0.9,1.4-2.8,0.5-4L310,149.2l104.6,60.3c0.5,0.3,0.9,0.3,1.4,0.3c0.9,0,2-0.5,2.5-1.4C419.1,207.2,418.6,205.3,417.2,204.5
			L417.2,204.5z"/>
		<path id="bottom-stripes" fill="#F01616" d="M416.5,642.2c-0.8-1.4-2.6-1.9-3.9-1.1L310,700.3l43.6-55.7c0.9-1.2,0.8-3.1-0.5-4
			c-1.2-0.9-3.1-0.8-4,0.5l-47.6,60.8v-59.4c0-1.5-1.2-2.9-2.9-2.9c-1.7,0-2.9,1.2-2.9,2.9v59.4l-47.6-60.8c-0.9-1.2-2.8-1.4-4-0.5
			c-1.2,0.9-1.4,2.8-0.5,4l43.6,55.7L182.6,640c-1.4-0.8-3.1-0.3-3.9,1.1c-0.8,1.4-0.3,3.1,1.1,3.9l117.4,67.8c0,0,0,0,0.2,0
			c0.2,0,0.2,0.2,0.3,0.2c0,0,0,0,0.2,0c0,0,0,0,0.2,0h0.2c0.2,0,0.5,0.2,0.6,0.2l0,0l0,0l0,0l0,0c0.3,0,0.5,0,0.6-0.2h0.2h0.2
			c0.2,0,0.2-0.2,0.3-0.2c0,0,0,0,0.2,0L416,646.1C416.8,645.4,417.2,643.6,416.5,642.2z"/>
		<g id="nodeschool-banner">
			<path fill="#006FBF" d="M147,287.5c1.7,0,3.1-1.3,3.1-3.1v-15.6l12.7,16.7c0.8,1.1,1.7,2,3.3,2h0.3c1.7,0,3.3-1.3,3.3-3.3v-22.9
				c0-1.7-1.3-3.1-3.1-3.1c-1.7,0-3.1,1.3-3.1,3.1v14.9L151.1,260c-0.8-1.1-1.7-2-3.3-2h-0.7c-1.7,0-3.3,1.3-3.3,3.3v22.9
				C144,286.2,145.3,287.5,147,287.5L147,287.5z"/>
			<path fill="#006FBF" d="M190.5,287.8c8.9,0,15.6-6.8,15.6-14.9l0,0c0-8.3-6.4-14.9-15.3-14.9c-8.9,0-15.6,6.8-15.6,14.9l0,0
				C175.2,281.1,181.6,287.8,190.5,287.8z M182,272.8c0-5.1,3.5-8.9,8.8-8.9c5.1,0,8.8,4.1,8.8,9.2l0,0c0,5.1-3.5,8.9-8.8,8.9
				C185.6,281.8,182,277.9,182,272.8L182,272.8z"/>
			<path fill="#006FBF" d="M214.8,287.3h8.1c9.2,0,15.3-6.4,15.3-14.4l0,0c0-8.1-6.4-14.4-15.3-14.4h-8.1c-1.7,0-3.3,1.3-3.3,3.3
				v22.2C211.7,285.9,213.2,287.3,214.8,287.3z M218.1,264.1h4.8c5.2,0,8.8,3.5,8.8,8.8l0,0c0,5.1-3.5,8.8-8.8,8.8h-4.8V264.1
				L218.1,264.1z"/>
			<path fill="#006FBF" d="M247.2,287.3h16.1c1.6,0,2.8-1.3,2.8-2.8s-1.3-2.8-2.8-2.8h-13.2v-6.2h10.9c1.6,0,2.8-1.3,2.8-2.8
				c0-1.6-1.3-2.8-2.8-2.8h-10.9v-5.9h12.9c1.6,0,2.8-1.3,2.8-2.8c0-1.6-1.3-2.8-2.8-2.8h-15.8c-1.7,0-3.3,1.3-3.3,3.3v22.5
				C244.1,285.9,245.5,287.3,247.2,287.3L247.2,287.3z"/>
			<path fill="#006FBF" d="M271.3,284.2c3.3,2.4,7.1,3.5,10.9,3.5c6.4,0,10.7-3.3,10.7-8.9l0,0c0-5.1-3.3-7.2-9.2-8.8
				c-5.1-1.3-6.4-2-6.4-3.7l0,0c0-1.3,1.3-2.7,3.7-2.7c2,0,4,0.7,6.1,2c0.4,0.3,1.1,0.4,1.6,0.4c1.7,0,3.1-1.3,3.1-2.8
				c0-1.3-0.7-2.1-1.3-2.7c-2.7-1.7-5.7-2.7-9.2-2.7c-5.9,0-10,3.5-10,8.8l0,0c0,5.7,3.7,7.5,9.6,8.8c4.8,1.3,5.9,2,5.9,3.7l0,0
				c0,1.7-1.6,2.7-4.1,2.7c-2.8,0-5.2-1.1-7.5-2.7c-0.4-0.3-1.1-0.7-1.7-0.7c-1.7,0-3.1,1.3-3.1,2.8
				C270,283,270.7,283.8,271.3,284.2L271.3,284.2z"/>
			<path fill="#006FBF" d="M311.7,287.8c4.5,0,7.6-1.3,10.3-3.7c0.7-0.4,1.1-1.3,1.1-2.1c0-1.6-1.3-2.8-3.1-2.8
				c-0.7,0-1.3,0.3-2,0.7c-1.7,1.6-3.5,2.1-6.4,2.1c-5.1,0-8.3-4.1-8.3-9.2l0,0c0-5.1,3.5-8.9,8.3-8.9c2.1,0,4.1,0.7,5.9,2
				c0.4,0.3,1.1,0.7,2,0.7c1.7,0,3.1-1.3,3.1-3.1c0-1.1-0.7-2-1.3-2.7c-2.4-1.7-5.2-2.8-9.6-2.8c-8.9,0-15.1,6.8-15.1,14.9l0,0
				C297.2,281.1,303.5,287.8,311.7,287.8L311.7,287.8z"/>
			<path fill="#006FBF" d="M332.1,287.5c1.7,0,3.3-1.3,3.3-3.3v-8.8h11.9v8.8c0,1.7,1.3,3.3,3.3,3.3c1.7,0,3.3-1.3,3.3-3.3v-22.9
				c0-1.7-1.3-3.3-3.3-3.3c-1.7,0-3.3,1.3-3.3,3.3v8.5h-11.9v-8.5c0-1.7-1.3-3.3-3.3-3.3c-1.7,0-3.3,1.3-3.3,3.3v22.9
				C328.8,286.2,330.1,287.5,332.1,287.5z"/>
			<path fill="#006FBF" d="M374.4,287.8c8.9,0,15.3-6.8,15.3-14.9l0,0c0-8.3-6.4-14.9-15.3-14.9c-8.9,0-15.6,6.8-15.6,14.9l0,0
				C359,281.1,365.3,287.8,374.4,287.8z M365.6,272.8c0-5.1,3.5-8.9,8.8-8.9c5.1,0,8.8,4.1,8.8,9.2l0,0c0,5.1-3.5,8.9-8.8,8.9
				C369.3,281.8,365.6,277.9,365.6,272.8L365.6,272.8z"/>
			<path fill="#006FBF" d="M409.6,287.8c8.9,0,15.6-6.8,15.6-14.9l0,0c0-8.3-6.4-14.9-15.3-14.9c-8.9,0-15.6,6.8-15.6,14.9l0,0
				C394.3,281.1,400.6,287.8,409.6,287.8z M400.8,272.8c0-5.1,3.5-8.9,8.8-8.9c5.1,0,8.8,4.1,8.8,9.2l0,0c0,5.1-3.5,8.9-8.8,8.9
				C404.5,281.8,400.8,277.9,400.8,272.8L400.8,272.8z"/>
			<path fill="#006FBF" d="M433.9,287.3h14.9c1.6,0,2.8-1.3,2.8-2.8s-1.3-2.8-2.8-2.8h-11.9v-20.1c0-1.7-1.3-3.3-3.3-3.3
				c-1.7,0-3.3,1.3-3.3,3.3v22.3C430.5,285.9,432.1,287.3,433.9,287.3L433.9,287.3z"/>
		</g>
		<g>
			<path fill="#006FBF" d="M348.4,619.8l9.7-21.9c0.7-1.5,2-2.5,3.5-2.5h0.2c1.7,0,3,1,3.5,2.5l9.7,21.9c0.2,0.5,0.2,0.7,0.2,1.2
				c0,1.7-1.2,3-3,3c-1.5,0-2.5-0.7-3-2l-2-4.5h-12.2l-2,4.5c-0.5,1.2-1.5,2-2.7,2c-1.5,0-2.7-1.2-2.7-3
				C347.9,620.5,348.2,620,348.4,619.8z M365.6,611.8l-4-9.2l-4,9.2H365.6z"/>
			<path fill="#006FBF" d="M224.2,620.3v-21.6c0-1.7,1.2-3,3-3h15.4c1.5,0,2.7,1.2,2.7,2.7s-1.2,2.7-2.7,2.7h-12.4v5.7h10.7
				c1.5,0,2.7,1.2,2.7,2.7s-1.2,2.7-2.7,2.7h-10.7v6h12.7c1.5,0,2.7,1.2,2.7,2.7c0,1.5-1.2,2.7-2.7,2.7h-15.7
				C225.7,623.2,224.2,622,224.2,620.3z"/>
			<path fill="#006FBF" d="M283.3,609.9L283.3,609.9c0-8,6.2-14.4,14.7-14.4c4.2,0,7,1,9.4,2.7c0.5,0.5,1.2,1.2,1.2,2.5
				c0,1.7-1.2,3-3,3c-1,0-1.5-0.2-2-0.7c-1.7-1.2-3.5-2-6-2c-4.5,0-8,4-8,8.7l0,0c0,5,3.5,9,8.5,9c2.2,0,4.2-0.5,5.7-1.7v-4h-4.2
				c-1.5,0-2.7-1.2-2.7-2.7c0-1.5,1.2-2.7,2.7-2.7h7c1.7,0,3,1.2,3,3v6.7c0,1.7-0.7,3-2.2,4c-2.2,1.5-5.5,2.7-9.7,2.7
				C289.3,624.1,283.3,618.1,283.3,609.9z"/>
			<path fill="#006FBF" d="M414.5,620.5c-0.7-0.5-1.2-1.2-1.2-2.2c0-1.5,1.2-2.7,3-2.7c0.7,0,1.2,0.2,1.7,0.5c2,1.5,4.5,2.5,7.2,2.5
				c2.5,0,4-1,4-2.7l0,0c0-1.5-1-2.2-5.7-3.5c-5.7-1.5-9.2-3-9.2-8.5l0,0c0-5,4-8.5,9.7-8.5c3.5,0,6.2,1,9,2.5
				c0.7,0.5,1.2,1.2,1.2,2.5c0,1.5-1.2,2.7-3,2.7c-0.5,0-1-0.2-1.5-0.5c-2-1.2-4-2-6-2c-2.2,0-3.5,1-3.5,2.5l0,0
				c0,1.7,1.2,2.5,6,3.7c5.7,1.5,9,3.5,9,8.5l0,0c0,5.5-4.2,8.7-10.2,8.7C421.5,623.7,417.7,622.5,414.5,620.5z"/>
			<path fill="#006FBF" d="M169.5,621.4l-9-21.6c-0.2-0.5-0.2-1-0.2-1.5c0-1.7,1.2-3,3-3c1.5,0,2.7,1,3,2.2l7,18.2l7-18.2
				c0.5-1,1.5-2,3-2c1.7,0,3,1.2,3,3c0,0.5-0.2,1-0.2,1.2l-9.2,21.9c-0.7,1.5-1.7,2.5-3.5,2.5h-0.5
				C171.5,623.9,170.3,622.9,169.5,621.4z"/>
		</g>
		<g>
			<path id="doorknob" fill="#F01616" d="M298.8,431.3c4.1,0,7.5-3.4,7.5-7.5c0-4.1-3.4-7.5-7.5-7.5c-4.1,0-7.5,3.4-7.5,7.5
				C291.3,427.9,294.7,431.3,298.8,431.3z M298.8,423c0.5,0,0.7,0.3,0.7,0.7c0,0.5-0.3,0.7-0.7,0.7c-0.5,0-0.7-0.3-0.7-0.7
				C298.1,423.3,298.4,423,298.8,423z"/>
			<path fill="#F01616" d="M374.4,428.3c0.2-0.3,0.3-0.5,0.3-0.7v-0.2c0-0.3,0.2-0.5,0.2-0.8s0-0.5-0.2-0.8v-0.2
				c0-0.2-0.2-0.5-0.3-0.5v-0.2L338,361.9c-0.5-1-1.7-1.7-2.8-1.7h-8.8h-55.8h-8.2c-1.1,0-2.3,0.7-2.8,1.7L223.1,425v0.2
				c-0.2,0.2-0.2,0.5-0.3,0.5v0.2c0,0.3-0.2,0.5-0.2,0.8s0,0.5,0.2,0.8v0.2c0,0.2,0.2,0.5,0.3,0.5v0.2l33.9,58.8h83.3L374.4,428.3z
				 M264.2,367h2.9v27.6h-18.7L264.2,367z M267.3,486.2h-2.9l-17.3-29.8h20.2V486.2z M267.3,449.8h-24L231.8,430h35.5V449.8z
				 M267.3,423.2h-35.4l12.6-21.9h22.8V423.2z M323,426.8v59.5h-49.1v-33.1v-26.4v-28.7v-31H323V426.8z M354.3,449.8h-24.5V430h35.9
				L354.3,449.8z M329.7,367h3.4l15.8,27.6h-19.2V367z M329.7,401.4h23.2l12.7,21.9h-35.9V401.4z M329.7,486.2v-29.8h20.7
				l-17.3,29.8H329.7z"/>
		</g>
		<path fill="#F01616" d="M100,583.4h391.4c2,0,3.7-1.7,3.7-3.7V573h28.8h50.5V265L297.2,104.9L21.1,264.3v0.6l276.5-159.4
			l276.6,159.6V312h-33.9c-2,0-3.7,1.7-3.7,3.7v11h-41.9v-85.4c0-2-1.7-3.7-3.7-3.7H99.6c-2,0-3.7,1.7-3.7,3.7v85.4H54v-11
			c0-2-1.7-3.7-3.7-3.7H21.1v71.2h3.5l4.6,8.2h-8.1v193.5L298,744.8l276.4-159.6v-0.6L297.6,744.2L21.2,584.6V573h46.3h28.8v6.7
			C96.3,581.7,98,583.4,100,583.4z M574.3,405.4h-4.7l-4-7h8.7V405.4z M574.2,412.8v0.8l-0.5-0.8H574.2z M565.6,391.2l4.6-8.2h4v8.2
			H565.6z M544.1,330.2v-11h30.2v22h-30.2V330.2z M540.5,348.7h33.9v13h-0.2L556,393.1v0.2c-0.2,0.2-0.2,0.5-0.3,0.6v0.2
			c0,0.3-0.2,0.6-0.2,0.9c0,0.3,0,0.6,0.2,0.9v0.2c0,0.2,0.2,0.5,0.3,0.6v0.2l18.3,31.6v43h-32.2c-2,0-3.7,1.7-3.7,3.7v25.5v25.5
			c0,2,1.7,3.7,3.7,3.7h32.2v35.7h-46.9V348.7H540.5z M545.6,496.9v-18.3h24.9v18.3H545.6z M570.5,504.3v18.3h-24.9v-18.3H570.5z
			 M494.8,557.1h0.1V557V334h41.9v7.3h-13.1c-2,0-3.7,1.7-3.7,3.7v220.6h-25.2V557.1z M103.5,330.2v-85.3h384v85.3v223.1h-5v-18.9
			c0-2-1.7-3.7-3.7-3.7h-8.5v-18.8c0-2-1.7-3.7-3.7-3.7h-8.5v-18.9c0-1.4-0.8-2.6-2-3.3H140.7c-1.1,0.7-1.8,1.8-1.8,3.2v18.9h-8.5
			c-2,0-3.7,1.7-3.7,3.7v18.9h-14.2c-2,0-3.7,1.7-3.7,3.7v18.9h-5.3V330.2z M454.7,515.6h8.5v15.3H134v-15.3h8.5H454.7z
			 M146.2,508.3V493h7.3h290.2h7.3v15.3H146.2z M466.7,538.2h8.5v15.3h-359v-15.3h14.2H466.7z M103.5,569.3v-8.5h9H479h8.5v8.5v6.7
			h-384V569.3z M21.2,319.2H47v11v11H21.2V319.2z M21.2,398.4h8.2v0.2l-4,6.8h-4.2V398.4z M63.8,565.4H21.2v-35.6h28
			c2,0,3.7-1.7,3.7-3.7v-25.5v-25.5c0-2-1.7-3.7-3.7-3.7h-28v-43.8L39,396.8v-0.2c0.2-0.2,0.2-0.5,0.3-0.6v-0.2
			c0-0.3,0.2-0.6,0.2-0.9s0-0.6-0.2-0.9v-0.2c0-0.2-0.2-0.5-0.3-0.6V393l-17.8-30.8v-13.8h29.5h13.1V565.4z M45.5,504.3v18.3H24.3
			v-18.3L45.5,504.3z M24.3,496.9v-18.3h21.2v18.3H24.3z M96.2,557v8.5H71V344.9c0-2-1.5-3.7-3.6-3.7H54.3v-7.3h41.9V557z"/>
		<g>
			<path fill="#F01616" d="M140.7,503.2v-0.6c-0.4,0.1-0.8,0.3-1.1,0.6H140.7z"/>
			<path fill="#F01616" d="M465.8,302.9H129.6c-2,0-3.7,1.7-3.7,3.7v40.2c0,2,1.7,3.7,3.7,3.7h8.5v11c0,2,1.7,3.7,3.7,3.7h7.3v120.9
				h7.3V361.8c0-2-1.7-3.7-3.7-3.7h-7.3v-7.3h50v7.3h-7.3c-2,0-3.7,1.7-3.7,3.7v124.3h7.1V365.6h7.3c2,0,3.7-1.7,3.7-3.7v-11h191.4
				v11c0,2,1.7,3.7,3.7,3.7h7.3v120.5h7.5V361.8c0-2-1.7-3.7-3.7-3.7h-7.3v-7.3h48.7v7.3h-7.3c-1.9,0-3.6,1.7-3.6,3.7v124.3h7.1
				V365.2h7.3c2,0,3.7-1.7,3.7-3.7v-11h8.5c2,0,3.7-1.7,3.7-3.7v-40.2C469.5,304.6,467.8,302.9,465.8,302.9z M462.4,343.6h-8.5h-56
				H199.1h-57.2h-8.7v-33h329.2V343.6z"/>
		</g>
	</g>
	<path fill="#FDB128" d="M590.1,249.4L303,83.8c-3.2-1.9-7.3-1.9-10.5,0L5.3,249.4c-3.2,1.9-5.3,5.4-5.3,9.1v331.5
		c0,3.7,2,7.3,5.3,9.1l287.1,165.7c1.7,0.9,3.4,1.4,5.3,1.4s3.7-0.5,5.3-1.4l287.1-165.7c3.2-1.9,5.3-5.4,5.3-9.1V258.6
		C595.4,254.9,593.4,251.3,590.1,249.4z M574.5,576.6L574.5,576.6l0,7.5L297.7,743.7L21.3,584.1v-7.5h-0.5V311.5v-14.2v-32.6
		L297.7,105l276.6,159.6v32.6h0.2V576.6z"/>
</g>
<g id="Lights">
	<g>
		<circle fill="#FFFF61" stroke="#000000" stroke-miterlimit="10" cx="580.6" cy="261.1" r="13.8"/>
		<circle fill="#FFFF61" stroke="#000000" stroke-miterlimit="10" cx="580.6" cy="587.6" r="13.8"/>
		<circle fill="#FFFF61" stroke="#000000" stroke-miterlimit="10" cx="297.7" cy="751.1" r="13.8"/>
		<circle fill="#FFFF61" stroke="#000000" stroke-miterlimit="10" cx="297.5" cy="97.6" r="13.8"/>
		<circle fill="#FFFF61" stroke="#000000" stroke-miterlimit="10" cx="14.8" cy="587.1" r="13.8"/>
		<circle fill="#FFFF61" stroke="#000000" stroke-miterlimit="10" cx="14.8" cy="261.1" r="13.8"/>
		<circle fill="#FFFF61" stroke="#000000" stroke-miterlimit="10" cx="369.2" cy="138.5" r="13.8"/>
		<circle fill="#FFFF61" stroke="#000000" stroke-miterlimit="10" cx="440" cy="179.4" r="13.8"/>
		<circle fill="#FFFF61" stroke="#000000" stroke-miterlimit="10" cx="510.8" cy="220.2" r="13.8"/>
		<circle fill="#FFFF61" stroke="#000000" stroke-miterlimit="10" cx="84.6" cy="628" r="13.8"/>
		<circle fill="#FFFF61" stroke="#000000" stroke-miterlimit="10" cx="155.4" cy="668.8" r="13.8"/>
		<circle fill="#FFFF61" stroke="#000000" stroke-miterlimit="10" cx="226.2" cy="709.7" r="13.8"/>
		<circle fill="#FFFF61" stroke="#000000" stroke-miterlimit="10" cx="580.6" cy="506.6" r="13.8"/>
		<circle fill="#FFFF61" stroke="#000000" stroke-miterlimit="10" cx="580.6" cy="424.9" r="13.8"/>
		<circle fill="#FFFF61" stroke="#000000" stroke-miterlimit="10" cx="580.6" cy="343.1" r="13.8"/>
		<circle fill="#FFFF61" stroke="#000000" stroke-miterlimit="10" cx="14.8" cy="506.6" r="13.8"/>
		<circle fill="#FFFF61" stroke="#000000" stroke-miterlimit="10" cx="14.8" cy="424.9" r="13.8"/>
		<circle fill="#FFFF61" stroke="#000000" stroke-miterlimit="10" cx="14.9" cy="343.1" r="13.8"/>
		<circle fill="#FFFF61" stroke="#000000" stroke-miterlimit="10" cx="84.9" cy="220.2" r="13.8"/>
		<circle fill="#FFFF61" stroke="#000000" stroke-miterlimit="10" cx="155.7" cy="179.4" r="13.8"/>
		<circle fill="#FFFF61" stroke="#000000" stroke-miterlimit="10" cx="226.5" cy="138.5" r="13.8"/>
		<circle fill="#FFFF61" stroke="#000000" stroke-miterlimit="10" cx="368.5" cy="709.7" r="13.8"/>
		<circle fill="#FFFF61" stroke="#000000" stroke-miterlimit="10" cx="439.3" cy="668.8" r="13.8"/>
		<circle fill="#FFFF61" stroke="#000000" stroke-miterlimit="10" cx="510.1" cy="628" r="13.8"/>
	</g>
</g>
</svg>
